<?xml version="1.0" encoding="utf-8"?>
<svg xmlns="http://www.w3.org/2000/svg" width="232" height="232" class="segno"><g transform="scale(8)"><path fill="#fff" d="M0 0h29v29h-29z"/><path class="qrline" stroke="#1f1f1f" d="M0 0.5h7m3 0h2m1 0h2m1 0h5m1 0h7m-29 1h1m5 0h1m1 0h5m1 0h2m2 0h2m2 0h1m5 0h1m-29 1h1m1 0h3m1 0h1m3 0h1m2 0h2m1 0h1m1 0h3m1 0h1m1 0h3m1 0h1m-29 1h1m1 0h3m1 0h1m4 0h5m2 0h2m2 0h1m1 0h3m1 0h1m-29 1h1m1 0h3m1 0h1m1 0h1m2 0h2m1 0h1m1 0h4m2 0h1m1 0h3m1 0h1m-29 1h1m5 0h1m4 0h3m1 0h3m1 0h2m1 0h1m5 0h1m-29 1h7m1 0h1m1 0h1m1 0h1m1 0h1m1 0h1m1 0h1m1 0h1m1 0h7m-20 1h2m1 0h3m1 0h5m-21 1h1m1 0h1m1 0h1m1 0h1m5 0h1m1 0h4m6 0h1m2 0h1m-27 1h1m3 0h1m1 0h1m1 0h1m2 0h1m1 0h1m5 0h3m2 0h1m2 0h1m-28 1h2m3 0h1m1 0h1m2 0h1m1 0h1m3 0h1m2 0h3m1 0h1m1 0h3m-28 1h1m1 0h2m3 0h1m8 0h3m4 0h1m2 0h1m-27 1h1m1 0h1m1 0h8m4 0h6m2 0h1m1 0h2m-29 1h1m3 0h1m2 0h1m3 0h3m2 0h1m3 0h3m2 0h1m2 0h1m-29 1h1m1 0h2m2 0h1m2 0h3m2 0h1m2 0h1m2 0h1m1 0h4m1 0h2m-28 1h1m2 0h1m4 0h2m2 0h8m1 0h1m1 0h2m1 0h1m-28 1h1m1 0h1m1 0h7m3 0h1m1 0h2m3 0h2m2 0h1m1 0h2m-25 1h2m1 0h1m3 0h2m1 0h1m1 0h1m3 0h1m1 0h2m1 0h2m1 0h1m-29 1h1m3 0h1m1 0h2m1 0h1m1 0h1m1 0h1m2 0h1m4 0h3m3 0h2m-28 1h3m1 0h1m1 0h1m1 0h4m4 0h1m1 0h1m1 0h1m2 0h2m1 0h1m-28 1h1m1 0h2m1 0h3m1 0h1m1 0h2m4 0h1m1 0h6m-17 1h2m2 0h2m2 0h2m1 0h2m3 0h1m1 0h3m-29 1h7m4 0h1m2 0h1m4 0h2m1 0h1m1 0h2m1 0h2m-29 1h1m5 0h1m5 0h7m1 0h1m3 0h2m2 0h1m-29 1h1m1 0h3m1 0h1m1 0h1m1 0h2m2 0h1m2 0h1m2 0h5m3 0h1m-29 1h1m1 0h3m1 0h1m2 0h2m2 0h2m1 0h2m2 0h2m1 0h2m1 0h3m-29 1h1m1 0h3m1 0h1m1 0h3m1 0h1m3 0h5m2 0h3m2 0h1m-29 1h1m5 0h1m2 0h1m5 0h6m1 0h1m1 0h1m2 0h1m-28 1h7m1 0h2m1 0h3m3 0h1m1 0h2m3 0h1m2 0h2"/></g></svg>
